<svg width="14" height="14" viewBox="0 0 14 14" fill="none" xmlns="http://www.w3.org/2000/svg">
<path d="M11.7929 5.76602H8.06429V1.78955C8.06429 1.05755 7.5078 0.464058 6.82143 0.464058C6.13507 0.464058 5.57858 1.05755 5.57858 1.78955V5.76602H1.85C1.16364 5.76602 0.607147 6.35951 0.607147 7.09151C0.607147 7.82351 1.16364 8.417 1.85 8.417H5.57858V12.3935C5.57858 13.1255 6.13507 13.719 6.82143 13.719C7.5078 13.719 8.06429 13.1255 8.06429 12.3935V8.417H11.7929C12.4792 8.417 13.0357 7.82351 13.0357 7.09151C13.0357 6.35951 12.4792 5.76602 11.7929 5.76602Z" fill="white"/>
</svg>
