<svg width="32" height="32" viewBox="0 0 32 32" fill="none" xmlns="http://www.w3.org/2000/svg">
<circle cx="16" cy="16" r="15" stroke="black" stroke-width="2"/>
<path d="M16.4602 15.04V15.54H16.9602H19.8402C20.0942 15.54 20.3002 15.746 20.3002 16C20.3002 16.254 20.0942 16.46 19.8402 16.46H16.9602H16.4602V16.96V19.84C16.4602 20.094 16.2542 20.3 16.0002 20.3C15.7462 20.3 15.5402 20.094 15.5402 19.84V16.96V16.46H15.0402H12.1602C11.9062 16.46 11.7002 16.254 11.7002 16C11.7002 15.746 11.9062 15.54 12.1602 15.54H15.0402H15.5402V15.04V12.16C15.5402 11.906 15.7462 11.7 16.0002 11.7C16.2542 11.7 16.4602 11.906 16.4602 12.16V15.04Z" fill="black" stroke="black"/>
</svg>
