<svg width="32" height="32" viewBox="0 0 32 32" fill="none" xmlns="http://www.w3.org/2000/svg">
<circle cx="16" cy="16" r="15" stroke="black" stroke-width="2"/>
<path d="M17.1458 15.3536L16.7922 15.7071L17.1458 16.0607L19.3944 18.3093C19.613 18.5279 19.613 18.8826 19.3944 19.1012C19.1757 19.3199 18.8211 19.3199 18.6024 19.1012L16.3538 16.8526L16.0002 16.4991L15.6467 16.8526L13.3981 19.1012C13.1794 19.3199 12.8248 19.3199 12.6061 19.1012C12.3875 18.8826 12.3875 18.5279 12.6061 18.3093L14.8547 16.0607L15.2083 15.7071L14.8547 15.3536L12.6061 13.105C12.3875 12.8863 12.3875 12.5317 12.6061 12.313C12.8248 12.0943 13.1794 12.0943 13.3981 12.313L15.6467 14.5616L16.0002 14.9152L16.3538 14.5616L18.6024 12.313C18.8211 12.0943 19.1757 12.0943 19.3944 12.313C19.613 12.5317 19.613 12.8863 19.3944 13.105L17.1458 15.3536Z" fill="#D0D0D0" stroke="black"/>
</svg>
